<mxfile host="app.diagrams.net" modified="2023-02-14T11:41:40.580Z" agent="5.0 (Windows NT 10.0; Win64; x64) AppleWebKit/537.36 (KHTML, like Gecko) Chrome/110.0.0.0 Safari/537.36 Edg/110.0.1587.41" etag="cKoF14N9QYS1igjZMxSH" version="20.8.20" type="github">
  <diagram name="Page-1" id="V2jNtkLzpU0wWYY4yvSr">
    <mxGraphModel dx="765" dy="542" grid="1" gridSize="10" guides="1" tooltips="1" connect="1" arrows="1" fold="1" page="1" pageScale="1" pageWidth="750" pageHeight="280" math="0" shadow="0">
      <root>
        <mxCell id="0" />
        <mxCell id="1" parent="0" />
        <mxCell id="-57a6qlOdvjmpBCnQsLR-2" value="death" style="rounded=1;whiteSpace=wrap;html=1;fontFamily=Montserrat;fontSource=https%3A%2F%2Ffonts.googleapis.com%2Fcss%3Ffamily%3DMontserrat;" vertex="1" parent="1">
          <mxGeometry x="590" y="20" width="120" height="60" as="geometry" />
        </mxCell>
        <mxCell id="-57a6qlOdvjmpBCnQsLR-3" value="death from other causes" style="rounded=1;whiteSpace=wrap;html=1;fontFamily=Montserrat;fontSource=https%3A%2F%2Ffonts.googleapis.com%2Fcss%3Ffamily%3DMontserrat;" vertex="1" parent="1">
          <mxGeometry x="600" y="150" width="120" height="60" as="geometry" />
        </mxCell>
        <mxCell id="-57a6qlOdvjmpBCnQsLR-20" style="edgeStyle=none;rounded=0;orthogonalLoop=1;jettySize=auto;html=1;exitX=1;exitY=0.25;exitDx=0;exitDy=0;entryX=0;entryY=0.25;entryDx=0;entryDy=0;fontSize=11;" edge="1" parent="1" source="-57a6qlOdvjmpBCnQsLR-4" target="-57a6qlOdvjmpBCnQsLR-2">
          <mxGeometry relative="1" as="geometry" />
        </mxCell>
        <mxCell id="-57a6qlOdvjmpBCnQsLR-4" value="Barrett&#39;s&lt;br&gt;Oesophagus" style="rounded=1;whiteSpace=wrap;html=1;fontFamily=Montserrat;fontSource=https%3A%2F%2Ffonts.googleapis.com%2Fcss%3Ffamily%3DMontserrat;" vertex="1" parent="1">
          <mxGeometry x="220" y="80" width="120" height="60" as="geometry" />
        </mxCell>
        <mxCell id="-57a6qlOdvjmpBCnQsLR-5" value="Oesophageal Adenocarcinoma" style="rounded=1;whiteSpace=wrap;html=1;fontFamily=Montserrat;fontSource=https%3A%2F%2Ffonts.googleapis.com%2Fcss%3Ffamily%3DMontserrat;" vertex="1" parent="1">
          <mxGeometry x="400" y="110" width="120" height="60" as="geometry" />
        </mxCell>
        <mxCell id="-57a6qlOdvjmpBCnQsLR-6" value="Gastro-Oesophageal&lt;br&gt;Reflux Disease" style="rounded=1;whiteSpace=wrap;html=1;fontFamily=Montserrat;fontSource=https%3A%2F%2Ffonts.googleapis.com%2Fcss%3Ffamily%3DMontserrat;" vertex="1" parent="1">
          <mxGeometry x="30" width="120" height="60" as="geometry" />
        </mxCell>
        <mxCell id="-57a6qlOdvjmpBCnQsLR-7" value="&lt;b&gt;&lt;font style=&quot;font-size: 14px;&quot;&gt;Esomeprazole&lt;/font&gt;&lt;/b&gt;" style="rounded=0;whiteSpace=wrap;html=1;fillColor=#dae8fc;strokeColor=#6c8ebf;fontFamily=Montserrat;fontSource=https%3A%2F%2Ffonts.googleapis.com%2Fcss%3Ffamily%3DMontserrat;" vertex="1" parent="1">
          <mxGeometry y="180" width="120" height="60" as="geometry" />
        </mxCell>
        <mxCell id="-57a6qlOdvjmpBCnQsLR-8" value="Aspirin" style="rounded=0;whiteSpace=wrap;html=1;fillColor=#dae8fc;strokeColor=#6c8ebf;fontSize=14;fontStyle=1;fontFamily=Montserrat;fontSource=https%3A%2F%2Ffonts.googleapis.com%2Fcss%3Ffamily%3DMontserrat;" vertex="1" parent="1">
          <mxGeometry x="220" y="220" width="120" height="60" as="geometry" />
        </mxCell>
        <mxCell id="-57a6qlOdvjmpBCnQsLR-11" value="" style="endArrow=classic;html=1;rounded=0;exitX=1;exitY=0.5;exitDx=0;exitDy=0;entryX=0;entryY=0.75;entryDx=0;entryDy=0;fontFamily=Montserrat;fontSource=https%3A%2F%2Ffonts.googleapis.com%2Fcss%3Ffamily%3DMontserrat;" edge="1" parent="1" source="-57a6qlOdvjmpBCnQsLR-7" target="-57a6qlOdvjmpBCnQsLR-4">
          <mxGeometry relative="1" as="geometry">
            <mxPoint x="610" y="190" as="sourcePoint" />
            <mxPoint x="710" y="190" as="targetPoint" />
          </mxGeometry>
        </mxCell>
        <mxCell id="-57a6qlOdvjmpBCnQsLR-12" value="reduces&lt;br&gt;acid reflux" style="edgeLabel;resizable=0;html=1;align=center;verticalAlign=middle;rounded=0;fontFamily=Montserrat;fontSource=https%3A%2F%2Ffonts.googleapis.com%2Fcss%3Ffamily%3DMontserrat;" connectable="0" vertex="1" parent="-57a6qlOdvjmpBCnQsLR-11">
          <mxGeometry relative="1" as="geometry" />
        </mxCell>
        <mxCell id="-57a6qlOdvjmpBCnQsLR-13" value="" style="endArrow=classic;html=1;rounded=0;fontSize=14;exitX=1;exitY=0.75;exitDx=0;exitDy=0;entryX=0;entryY=0.25;entryDx=0;entryDy=0;fontFamily=Montserrat;fontSource=https%3A%2F%2Ffonts.googleapis.com%2Fcss%3Ffamily%3DMontserrat;" edge="1" parent="1" source="-57a6qlOdvjmpBCnQsLR-6" target="-57a6qlOdvjmpBCnQsLR-4">
          <mxGeometry relative="1" as="geometry">
            <mxPoint x="210" y="29.5" as="sourcePoint" />
            <mxPoint x="310" y="29.5" as="targetPoint" />
          </mxGeometry>
        </mxCell>
        <mxCell id="-57a6qlOdvjmpBCnQsLR-14" value="&lt;font style=&quot;font-size: 11px;&quot;&gt;main&lt;br&gt;risk factor&lt;/font&gt;" style="edgeLabel;resizable=0;html=1;align=center;verticalAlign=middle;rounded=0;fontSize=14;fontFamily=Montserrat;fontSource=https%3A%2F%2Ffonts.googleapis.com%2Fcss%3Ffamily%3DMontserrat;" connectable="0" vertex="1" parent="-57a6qlOdvjmpBCnQsLR-13">
          <mxGeometry relative="1" as="geometry" />
        </mxCell>
        <mxCell id="-57a6qlOdvjmpBCnQsLR-16" value="" style="endArrow=classic;html=1;rounded=0;exitX=1;exitY=0.25;exitDx=0;exitDy=0;entryX=0.25;entryY=1;entryDx=0;entryDy=0;fontFamily=Montserrat;fontSource=https%3A%2F%2Ffonts.googleapis.com%2Fcss%3Ffamily%3DMontserrat;" edge="1" parent="1" source="-57a6qlOdvjmpBCnQsLR-8" target="-57a6qlOdvjmpBCnQsLR-5">
          <mxGeometry relative="1" as="geometry">
            <mxPoint x="130" y="225" as="sourcePoint" />
            <mxPoint x="230" y="140" as="targetPoint" />
          </mxGeometry>
        </mxCell>
        <mxCell id="-57a6qlOdvjmpBCnQsLR-17" value="may&lt;br&gt;reduce" style="edgeLabel;resizable=0;html=1;align=center;verticalAlign=middle;rounded=0;fontFamily=Montserrat;fontSource=https%3A%2F%2Ffonts.googleapis.com%2Fcss%3Ffamily%3DMontserrat;" connectable="0" vertex="1" parent="-57a6qlOdvjmpBCnQsLR-16">
          <mxGeometry relative="1" as="geometry" />
        </mxCell>
        <mxCell id="-57a6qlOdvjmpBCnQsLR-18" value="" style="endArrow=classic;html=1;rounded=0;fontSize=11;exitX=1;exitY=0.25;exitDx=0;exitDy=0;entryX=0;entryY=0.75;entryDx=0;entryDy=0;" edge="1" parent="1" source="-57a6qlOdvjmpBCnQsLR-5" target="-57a6qlOdvjmpBCnQsLR-2">
          <mxGeometry width="50" height="50" relative="1" as="geometry">
            <mxPoint x="640" y="200" as="sourcePoint" />
            <mxPoint x="690" y="150" as="targetPoint" />
          </mxGeometry>
        </mxCell>
        <mxCell id="-57a6qlOdvjmpBCnQsLR-19" value="" style="endArrow=classic;html=1;rounded=0;fontSize=11;exitX=1;exitY=0.75;exitDx=0;exitDy=0;entryX=0;entryY=0.5;entryDx=0;entryDy=0;" edge="1" parent="1" source="-57a6qlOdvjmpBCnQsLR-5" target="-57a6qlOdvjmpBCnQsLR-3">
          <mxGeometry width="50" height="50" relative="1" as="geometry">
            <mxPoint x="520" y="115" as="sourcePoint" />
            <mxPoint x="600" y="60" as="targetPoint" />
          </mxGeometry>
        </mxCell>
        <mxCell id="-57a6qlOdvjmpBCnQsLR-22" value="5yr survival &amp;lt; 10% when dign. symptoms" style="text;html=1;strokeColor=none;fillColor=none;align=center;verticalAlign=middle;whiteSpace=wrap;rounded=0;fontSize=11;rotation=-15;" vertex="1" parent="1">
          <mxGeometry x="380" y="35" width="120" height="30" as="geometry" />
        </mxCell>
      </root>
    </mxGraphModel>
  </diagram>
</mxfile>
